<?xml version="1.0" encoding="utf-8"?>
<!-- Generator: Adobe Illustrator 16.0.0, SVG Export Plug-In . SVG Version: 6.00 Build 0)  -->
<!DOCTYPE svg PUBLIC "-//W3C//DTD SVG 1.0//EN" "http://www.w3.org/TR/2001/REC-SVG-20010904/DTD/svg10.dtd">
<svg version="1.0" id="Calque_1" xmlns="http://www.w3.org/2000/svg" xmlns:xlink="http://www.w3.org/1999/xlink" x="0px" y="0px"
	 width="50px" height="50px" viewBox="0 0 50 50" enable-background="new 0 0 50 50" xml:space="preserve">
<path fill="#FFFFFF" d="M25,1c13.234,0,24,10.767,24,24S38.233,49,25,49C11.766,49,1,38.233,1,25S11.766,1,25,1 M25,0
	C11.193,0,0,11.193,0,25s11.193,25,25,25c13.807,0,25-11.193,25-25S38.807,0,25,0L25,0z"/>
<polygon fill="#FFFFFF" points="25,27.118 19.882,22 17.76,22 25,29.239 32.239,22 30.118,22 "/>
</svg>
